<?xml version="1.0" encoding="UTF-8"?>
<svg width="832.48" height="281.39" version="1.1" viewBox="0 0 832.48 281.39" xml:space="preserve" xmlns="http://www.w3.org/2000/svg" xmlns:cc="http://creativecommons.org/ns#" xmlns:dc="http://purl.org/dc/elements/1.1/" xmlns:rdf="http://www.w3.org/1999/02/22-rdf-syntax-ns#"><metadata><rdf:RDF><cc:Work rdf:about=""><dc:format>image/svg+xml</dc:format><dc:type rdf:resource="http://purl.org/dc/dcmitype/StillImage"/></cc:Work></rdf:RDF></metadata><defs><clipPath id="clipPath6908"><path d="M 0,342.864 H 628.556 V 0 H 0 Z"/></clipPath></defs><g transform="matrix(1.3333 0 0 -1.3333 -100.55 381.94)"><g clip-path="url(#clipPath6908)"><g transform="translate(235.28 161.61)"><path d="m0 0-28.636 67.089h-0.02c-9.223 22.568-34.253 38.756-63.703 38.756-37.282 0-67.505-25.935-67.505-57.927v-134.11h75.413v38.772c18.025-2.729 35.939 2.022 48.598 14.681 6.441 6.44 10.835 14.243 13.242 22.726h15.998c5.157 0 8.637 5.271 6.613 10.014" fill="#0feb73"/></g><g transform="translate(186.2 193.66)"><path d="m0 0c2.352-2.634 5.686-3.947 9.995-3.947 9.096 0 13.647 5.31 13.647 15.93v15.564h-27.174v-15.564c0-5.352 1.176-9.34 3.532-11.983m-2.358-15.315c-3.872 2.061-7.021 5.36-9.448 9.88-2.431 4.529-3.644 10.338-3.644 17.418v15.564h-34.83v14.077h85.84v-29.641c0-6.59-1.134-12.166-3.397-16.736-2.266-4.571-5.332-7.986-9.203-10.255-3.87-2.26-8.193-3.39-12.967-3.39-4.365 0-8.482 1.031-12.351 3.083" fill="#003737"/></g><g transform="translate(352.85 178.44)"><path d="m0 0c2.633 2.427 3.95 5.863 3.95 10.308 0 9.381-5.307 14.072-15.924 14.072h-15.553v-28.022h15.553c5.349 0 9.34 1.214 11.974 3.642m15.307-2.036c-2.058-3.869-5.35-7.018-9.875-9.443-4.527-2.429-10.329-3.642-17.406-3.642h-15.553v-34.811h-14.072v85.791h29.625c6.583 0 12.16-1.131 16.726-3.394 4.568-2.264 7.982-5.329 10.246-9.196 2.263-3.87 3.395-8.19 3.395-12.961 0-4.364-1.03-8.478-3.086-12.344" fill="#003737"/></g><path d="m393.13 128.51h-14.072v91.346h14.072z" fill="#003737"/><g transform="translate(456.07 174.8)"><path d="m0 0c-1.935 3.457-4.465 6.09-7.592 7.9-3.128 1.81-6.502 2.716-10.122 2.716-3.622 0-6.995-0.886-10.122-2.654-3.128-1.771-5.659-4.362-7.592-7.776-1.934-3.416-2.901-7.469-2.901-12.16 0-4.69 0.967-8.806 2.901-12.343 1.933-3.539 4.485-6.235 7.654-8.086 3.167-1.852 6.521-2.778 10.06-2.778 3.62 0 6.994 0.906 10.122 2.716 3.127 1.81 5.657 4.463 7.592 7.962 1.933 3.497 2.901 7.592 2.901 12.282 0 4.692-0.968 8.765-2.901 12.221m-48.512 6.172c2.839 5.266 6.706 9.36 11.603 12.283 4.895 2.92 10.307 4.382 16.233 4.382 5.348 0 10.017-1.05 14.01-3.148 3.991-2.098 7.179-4.711 9.567-7.838v9.875h14.195v-68.016h-14.195v10.122c-2.388-3.209-5.638-5.885-9.752-8.023-4.116-2.139-8.807-3.21-14.072-3.21-5.845 0-11.193 1.501-16.048 4.505-4.856 3.003-8.702 7.201-11.541 12.591-2.84 5.39-4.259 11.5-4.259 18.331 0 6.83 1.419 12.879 4.259 18.146" fill="#003737"/></g><g transform="translate(535.96 174.8)"><path d="m0 0c-1.935 3.457-4.465 6.09-7.592 7.9-3.128 1.81-6.502 2.716-10.122 2.716-3.622 0-6.995-0.886-10.122-2.654-3.128-1.771-5.659-4.362-7.592-7.776-1.934-3.416-2.901-7.469-2.901-12.16 0-4.69 0.967-8.806 2.901-12.343 1.933-3.539 4.485-6.235 7.654-8.086 3.167-1.852 6.521-2.778 10.06-2.778 3.62 0 6.994 0.906 10.122 2.716 3.127 1.81 5.657 4.463 7.592 7.962 1.933 3.497 2.901 7.592 2.901 12.282 0 4.692-0.968 8.765-2.901 12.221m-6.666 19.689c4.074-2.098 7.262-4.711 9.567-7.838v9.875h14.195v-69.127c0-6.253-1.317-11.829-3.95-16.726-2.634-4.895-6.44-8.743-11.418-11.542-4.98-2.797-10.924-4.197-17.837-4.197-9.218 0-16.871 2.16-22.96 6.48-6.091 4.322-9.548 10.185-10.369 17.591h13.949c1.068-3.537 3.352-6.397 6.851-8.579 3.496-2.18 7.672-3.272 12.529-3.272 5.678 0 10.265 1.729 13.763 5.185 3.497 3.456 5.247 8.478 5.247 15.06v11.356c-2.388-3.209-5.617-5.905-9.691-8.085-4.073-2.18-8.702-3.271-13.886-3.271-5.926 0-11.338 1.501-16.233 4.505-4.897 3.003-8.764 7.201-11.603 12.591-2.84 5.39-4.259 11.5-4.259 18.331 0 6.83 1.419 12.879 4.259 18.146 2.839 5.266 6.706 9.36 11.603 12.283 4.895 2.92 10.307 4.382 16.233 4.382 5.265 0 9.937-1.05 14.01-3.148" fill="#003737"/></g></g></g><g transform="matrix(.8 0 0 .8 -144.12 205.8)" stroke-width="1.25"><path d="m1067-257.25c-63.787 0.14015-110.62 109.26 42.218 195.82 1.5172 0.85933 3.1981 1.237 4.6118 1.237s3.0945-0.3777 4.6118-1.237c152.84-86.566 106-195.68 42.218-195.82-15.482-0.034-31.963 6.3518-46.83 21.039-14.867-14.687-31.347-21.073-46.83-21.039z" fill="#ffd500"/><path d="m1067-257.25c-40.529 0.089-74.128 44.19-54.1 98.531h201.86c20.029-54.341-13.57-98.442-54.1-98.531-15.482-0.034-31.964 6.352-46.83 21.039-14.867-14.687-31.348-21.073-46.83-21.039z" fill="#005bbb"/></g></svg>
